<svg xmlns="http://www.w3.org/2000/svg" width="50" height="50" viewBox="0 0 50 50" fill="none">
  <circle cx="25" cy="25" r="24" fill="white" stroke="#DE78E5" stroke-width="2"/>
  <path d="M36.6367 35.0781C37.1055 35.5469 37.1055 36.25 36.6367 36.6719C36.4492 36.9062 36.168 37 35.8867 37C35.5586 37 35.2773 36.9062 35.043 36.6719L28.7617 30.3906C27.0742 31.75 24.9648 32.5 22.7148 32.5C17.3711 32.5 13.0117 28.1406 13.0117 22.75C13.0117 17.4062 17.3242 13 22.7148 13C28.0586 13 32.4648 17.4062 32.4648 22.75C32.4648 25.0469 31.7148 27.1562 30.3555 28.7969L36.6367 35.0781ZM15.2617 22.75C15.2617 26.9219 18.5898 30.25 22.7617 30.25C26.8867 30.25 30.2617 26.9219 30.2617 22.75C30.2617 18.625 26.8867 15.25 22.7617 15.25C18.5898 15.25 15.2617 18.625 15.2617 22.75Z" fill="#420680"/>
</svg>