<svg width="1051" height="591" viewBox="0 0 1051 591" fill="none" xmlns="http://www.w3.org/2000/svg">
<path d="M315.752 146.994L306.489 159.892L292.254 151.569L290.353 146.361L278.848 143.976L281.919 135.799L289.183 137.94L300.834 124.263L297.909 121.586L292.108 129.082H289.476L286.599 123.338L290.646 119.445L289.817 117.838L286.209 119.299L284.601 117.546L286.063 112.728L283.138 111.267L281.383 119.347L278.409 120.905L278.702 126.259L269.976 132.44L265.832 130.688L264.077 132.294L273.486 145.972L270.658 148.357L266.319 149.281L263.053 154.051L249.159 145.436L228.002 166.56L229.659 177.901L249.159 190.897L254.034 205.499L257.886 203.844L257.252 187.636L271.877 168.167L267.051 155.122L269.293 150.011L274.802 149.622L296.496 161.012L297.227 172.401H300.152L305.319 165.392H308.976L325.502 198.442L332.522 231.101L310.877 228.181L308.976 219.712L299.031 222.292L306.002 237.916L262.127 260.646L237.752 289.85L238.386 307.081L230.683 308.2L221.518 291.651L185.785 302.846L182.908 324.311L193.877 328.789L206.064 317.351L214.888 325.041L216.351 339.741L228.002 356.387L289.768 357.993L338.518 395.326L371.034 408.273L374.252 424.53L359.627 463.468L338.372 475.15L292.059 547.819L293.034 577.023H302.784L304.393 586.758L284.893 590.019L267.002 562.421L262.127 452.079L229.659 401.799L239.409 375.856L228.002 366.121L214.011 359.891L209.379 353.32L189.88 342.661L178.472 343.78L157.022 327.962L136.596 289.948L134.158 289.023L150.928 326.453L146.98 325.869L111.002 263.907L120.752 203.844L96.3772 143.83L66.591 131.175L53.136 147.237L47.1398 149.476L17.5973 160.282L14.9648 158.432L43.386 144.609L46.4085 139.352L40.8023 138.232L34.6598 117.887L54.1598 77.2934L65.5185 75.6871L68.7847 59.4789L109.393 56.2178L145.761 77.0013L176.035 85.4218L210.159 108.152L234.534 106.497L248.428 68.7755L271.877 74.5677L258.471 89.4617L259.689 107.714L264.272 113.506L269.147 105.913L263.979 99.5371L266.709 85.8112L280.749 76.7093L284.406 78.2182L307.659 87.0281L308.147 96.4707L320.042 116.232L320.334 122.657L325.843 134.485L317.751 144.219L313.461 140.618L311.852 143.149L315.752 146.994Z" fill="#420680"/>
<path d="M0.389999 165.879L0 168.118L8.62873 164.76L8.23873 162.18L0.389999 165.879Z" fill="#420680"/>
<path d="M281.776 336.09L279.924 330.201L268.906 328.351L253.111 323.581L228.493 314.431L217.816 317.01L222.253 321.78L238.779 323.971L261.935 334.971L281.776 336.09Z" fill="#420680"/>
<path d="M237.656 332.391L243.555 336.431L247.942 335.311L243.555 329.47L238.046 329.081L237.656 332.391Z" fill="#420680"/>
<path d="M309.708 567.678L308.977 573.178L317.069 574.249L319.263 571.328L317.41 566.899L309.708 567.678Z" fill="#420680"/>
<path d="M240.533 70.3328L235.658 65.1734L227.127 70.3328H221.959L214.354 64.8813L192.709 76.7577L191.783 81.917L202.752 82.2091L205.189 85.5676L195.732 87.0764C195.732 87.0764 194.221 91.9438 194.221 92.8686C194.221 93.7934 206.116 102.311 206.116 102.311L229.857 104.453L235.024 98.3687C235.024 98.3687 231.368 92.2845 231.076 91.0677C230.783 89.8508 233.221 79.5321 233.221 79.5321L240.533 70.4301V70.3328Z" fill="#420680"/>
<path d="M212.793 63.324L207.626 54.5141L197.876 52.9565L196.316 57.2398L185.055 69.4082L190.563 75.2003L212.793 63.324Z" fill="#420680"/>
<path d="M227.419 57.2402L252.721 58.457L254.232 50.5233L250.283 47.2135L251.161 41.7134L245.701 41.1293L245.067 51.156L239.899 51.7401L237.169 40.7886L222.252 49.0144L227.419 57.2402Z" fill="#420680"/>
<path d="M216.449 43.563L217.96 46.2887L221.617 41.7134L216.449 43.563Z" fill="#420680"/>
<path d="M227.418 36.8459L230.782 29.5449L211.574 35.9211L214.304 41.4212L227.418 36.8459Z" fill="#420680"/>
<path d="M251.5 31.0537C250.915 30.1289 242.676 28.9121 242.676 28.9121L241.75 33.4874L247.844 35.9211L251.5 31.0537Z" fill="#420680"/>
<path d="M256.035 23.7524L247.211 24.0932V26.5268L253.597 28.6198L256.035 23.7524Z" fill="#420680"/>
<path d="M266.125 63.3242L268.563 54.8063L266.418 46.8726L256.668 47.7974L257.594 59.3816L266.125 63.3242Z" fill="#420680"/>
<path d="M270.366 67.8991L271.584 61.1821L269.439 60.2573L267.002 65.1247L270.366 67.8991Z" fill="#420680"/>
<path d="M315.167 22.2438L327.939 23.7526L314.826 25.2615L311.657 29.058L313.266 36.7971L302.931 39.5228L299.567 47.7L281.578 51.0584L273.973 46.8238C273.973 46.8238 271.243 51.3991 271.536 52.616C271.828 53.8328 276.411 55.9744 276.411 55.9744L273.973 68.7269L286.746 74.1783L300.152 75.3951L304.101 68.7269L299.859 63.8595L284.308 61.4259L284.601 58.4081L295.569 59.917L305.904 63.2755L314.728 61.1338L314.143 55.3417L320.529 49.8903L324.186 50.1823L325.697 44.0981L329.646 41.6645L331.79 37.7219L358.895 22.1951L369.572 13.9693L369.279 8.51785L348.073 0.340714L345.05 2.14163L342.613 0L333.789 1.21684L331.985 4.23459L330.474 2.72571L323.162 4.52663L321.943 6.9603L319.798 5.15938L309.756 9.10193L310.682 16.987L315.264 22.1464L315.167 22.2438Z" fill="#420680"/>
<path d="M291.086 39.2795L295.668 41.7132L300.397 36.6998L309.075 34.4122L309.367 28.036L312.097 24.3854L306.296 20.1509L306.881 14.6994L304.736 10.4648L295.62 17.7659C295.62 17.7659 291.378 26.2837 291.378 27.2085C291.378 28.1333 292.305 31.1511 292.305 31.1511L289.867 33.5847L291.086 39.3769V39.2795Z" fill="#420680"/>
<path d="M285.285 34.7037L280.751 32.9028L279.191 42.3455L282.848 43.2216L285.285 34.7037Z" fill="#420680"/>
<path d="M284.992 45.3634L280.117 44.7793V46.5802L283.773 47.7971L284.992 45.3634Z" fill="#420680"/>
<path d="M268.221 37.7705L274.656 39.2794L278.312 28.9606L277.094 23.1685L271.292 23.4605L269.44 28.6199L264.906 28.9606L263.688 31.0536L268.562 33.4872L268.221 37.7705Z" fill="#420680"/>
<path d="M261.543 41.129L261.25 36.8458L257.887 36.5537L258.472 41.129H261.543Z" fill="#420680"/>
<path d="M430.998 110.44L441.967 91.4085V67.9479L461.077 37.9164L455.178 32.757L441.967 33.4871L438.31 28.3764L444.94 23.9471L428.024 12.9956L395.752 18.8364L392.047 24.6772L387.659 21.0267L376.642 19.5665L348.757 34.9473L348.026 40.1067L327.453 51.1069L331.158 70.8683L350.219 74.5188L346.563 128.06L353.876 166.901L366.356 175.711L378.104 150.06L391.315 145.631L400.871 138.33L430.998 119.98V110.44Z" fill="#420680"/>
<path d="M448.597 151.52L444.94 143.44L430.218 144.901L428.024 140.52L422.174 143.44L419.98 154.441L435.385 161.742L448.597 151.52Z" fill="#420680"/>
<path d="M520.551 78.9482L522.014 71.5985L524.939 66.4878L529.326 73.7888L533.763 69.4082L517.578 50.6689L505.098 58.408L515.384 78.2181L520.551 78.9482Z" fill="#420680"/>
<path d="M538.151 51.1068L525.086 47.6997L520.113 50.0847L531.618 59.3813L538.151 51.1068Z" fill="#420680"/>
<path d="M583.488 39.5711L581.05 35.5312L575.785 37.5755L572.129 40.788L577.004 44.0491L583.488 39.5711Z" fill="#420680"/>
<path d="M607.86 30.2753L604.594 27.0142L596.891 30.6647L591.626 29.8372L586.312 33.9258L595.283 40.7887L607.86 30.2753Z" fill="#420680"/>
<path d="M687.909 33.0979L685.131 22.4384L663.924 11.1948L661.877 21.757L675.283 29.058L687.909 33.0979Z" fill="#420680"/>
<path d="M693.174 38.7925L696.44 33.9252L699.658 28.2304L692.784 22.9736L690.736 24.1905L691.126 33.0977L693.174 38.7925Z" fill="#420680"/>
<path d="M680.059 563.93L684.934 566.997L688.005 562.081L681.277 559.014L680.059 563.93Z" fill="#420680"/>
<path d="M620.442 442.344L620.1 451.592L616.98 456.751V468.043L628.68 472.181L642.769 433.729L635.895 427.596L620.442 442.344Z" fill="#420680"/>
<path d="M891.636 262.885L882.471 275.638L887.979 284.156L890.319 282.209L890.661 275.394L915.377 262.885V247.65L909.917 232.464L914.938 231.88L919.277 228.473L916.791 220.977L908.698 219.079L906.261 200.827L892.854 171.623L891.002 174.056L901.532 203.893L904.457 222.243L902.166 231.248L904.652 237.77V254.854L891.636 262.885Z" fill="#420680"/>
<path d="M604.45 124.604L604.742 121.684L601.817 121.392L601.232 124.604H604.45Z" fill="#420680"/>
<path d="M621.61 114.869L625.119 111.949L615.711 103.967L618.051 89.2185L633.7 67.1207L628.386 62.3994L622.487 68.2889L617.173 70.3332L608.301 81.2847L608.886 106.644L621.61 114.869Z" fill="#420680"/>
<path d="M916.401 41.4698L899.875 45.899L904.896 50.9124L903.141 53.8815L893.976 51.2044L874.769 56.8019L867.993 50.0363L855.903 53.8815L849.711 54.1735L837.621 47.7L810.76 52.1292L815.781 60.6958L800.133 66.2932L801.01 71.8907L797.159 73.0588L786.531 59.1869L770.005 56.8506L768.835 61.5719L757.623 61.8639L740.512 61.2798L736.368 67.4614L733.735 68.6295L735.783 45.607L716.283 41.4698L704.485 34.4121L699.464 40.8857L701.512 49.4522L692.932 53.2974L678.745 70.6738L681.378 78.6563L667.484 85.7139L682.84 96.3247L681.378 99.5858L666.022 88.683L661.586 96.9575L669.873 116.427L678.745 116.719L681.085 120.856L680.5 122.608L677.527 119.055L672.213 118.763L668.947 133.219L665.095 131.759L667.777 122.024L655.394 93.4043L650.373 92.2361L648.618 88.683L645.059 88.0989L643.889 105.816L646.229 114.675L655.102 120.564L652.713 122.316L640.331 115.551L628.533 114.383L624.974 116.427L632.969 120.856L627.948 122.9L614.932 124.945L599.283 135.263L597.528 127.573L594.554 128.741L596.017 136.724L591.873 140.861L586.267 149.427L580.368 148.843L578.906 150.596L582.172 154.149L580.709 156.826L572.422 151.52L571.252 142.954L581.002 143.538L586.901 135.848L558.236 121.099L546.146 117.546L523.721 129.958L514.848 151.472L495.641 168.556L497.981 184.764L504.465 188.317L512.459 182.428L516.311 196.008L521.624 198.052L529.912 193.623L529.619 190.946L530.204 184.764L534.056 183.304L534.348 177.707L530.204 174.738L529.034 166.463L535.811 157.02L539.954 147.286L546.438 149.33L538.151 162.326L538.736 172.937L542.587 175.906L558.821 174.738L557.651 179.459L544.634 180.335L544.049 183.596L547.316 185.981L545.853 188.025L542.294 187.441L538.736 194.499L543.464 200.096L541.709 201.557L532.837 199.22L520.747 202.481L513.337 203.358L509.778 202.189L510.656 199.22L511.533 193.623L510.071 191.287L506.219 195.132L507.097 204.282L497.932 207.543L486.427 220.247L477.116 224.238L469.657 225.845V228.23L476.823 233.778L479.212 246.482L459.81 246.239L458.201 256.85L456.885 264.297L457.957 268.823L464.051 273.593L466.196 274.129L467.512 272.523L477.603 271.987L483.161 267.46L484.477 260.841L491.107 255.292L495.104 247.845L502.515 249.695L508.901 243.318L519.236 253.394L528.791 258.699L530.936 265.075L521.381 265.854L521.137 267.704L529.376 271.16L529.912 268.239L534.982 264.54L533.373 257.628L537.371 261.084L538.443 259.478L534.982 255.779L518.846 243.075L519.918 239.376L539.223 254.221L542.782 265.903L554.482 276.514L561.404 280.213L564.086 278.071L555.067 272.23L556.139 268.531L552.434 260.549L558.284 258.943L566.279 273.301L589.679 275.978L584.902 289.802L545.561 283.961L541.319 291.943L516.847 281.332L514.166 270.186L465.757 276.027L440.212 310.536L431.193 345.581L457.226 378.485L495.007 371.038L511.484 377.949L508.803 390.166L524.744 420.977L516.213 439.57L539.077 502.212L562.477 502.748L591.191 471.402L592.799 458.65L610.886 440.056V412.459L645.449 365.197L643.841 355.121L619.368 356.192L586.949 303.625L593.336 301.483L616.833 339.497L623.658 350.595L652.908 339.643L672.408 320.174L659.635 312.873L655.394 307.421L649.301 312.289L633.457 296.47L635.894 293.452L650.519 304.988L658.417 302.554L661.439 309.222L691.274 311.656L704.68 325.625L711.359 326.842L710.774 334.143L728.422 365.781L733.882 365.197L738.123 374.299L742.998 371.281L738.123 343.926L768.592 320.222L777.123 331.758L779.56 339.059L786.873 340.276L791.748 346.36L793.551 363.98L797.793 366.414L800.23 373.082L813.003 385.834V378.533L802.034 362.714L801.449 351.763L817.878 363.298L831.284 351.13L817.878 330.444L821.534 322.559L825.19 324.992L824.605 329.227L830.699 331.028L833.721 323.143L853.221 312.824L862.971 288.487L852.003 267.801L857.463 258.067L845.275 255.633V253.199L859.9 252.615L872.088 270.235L879.985 267.217L874.525 247.164L886.079 233.778L898.851 202.774L887.298 171.769L873.891 168.118L875.695 144.998L893.976 136.48L901.874 138.914L910.405 135.263L907.968 129.179L909.186 118.228L923.811 121.246L918.936 141.932L934.78 180.87L932.976 185.105L937.217 189.972L943.019 179.654L942.092 165.344L944.53 159.552L942.726 152.883L944.53 148.649L938.436 126.454L943.019 120.369L951.55 121.294V117.06L963.445 97.8823L952.769 82.6962L954.085 70.2844L969.734 67.3153L963.542 46.6778L916.255 41.6645L916.401 41.4698ZM604.304 253.394H573.397L564.622 249.5L572.812 234.606L577.102 235.823L584.463 241.956L588.948 239.911L587.924 235.19L592.019 234.606L593.628 241.128L605.718 248.673L604.304 253.394ZM631.897 265.416L634.334 256.655L621.659 239.522L633.944 230.761L636.382 232.805L630.678 239.133L638.234 249.549L640.282 256.071L644.767 267.704L631.897 265.465V265.416Z" fill="#420680"/>
<path d="M470.828 202.335L473.266 205.84L469.512 208.273L468.196 217.278L465.125 219.663L466.636 222.535L476.776 219.225L485.161 217.911L488.866 210.902L477.458 195.521L477.653 189.778L471.267 182.769L465.563 189.339L464.881 193.769L469.512 197.03L470.828 202.335Z" fill="#420680"/>
<path d="M454.545 213.53L455.666 216.84L466.196 213.092V205.402L468.439 200.778L463.807 197.906L455.227 204.964L454.545 213.53Z" fill="#420680"/>
<path d="M506.951 254.173L509.778 252.664L510.022 248.916L506.707 250.425L506.951 254.173Z" fill="#420680"/>
<path d="M508.265 263.616L511.337 264.297L510.215 254.854L506.949 256.801L508.265 263.616Z" fill="#420680"/>
<path d="M805.348 40.0582L802.179 36.8457L800.57 37.4785L803.154 42.4431L807.152 48.1866L815.878 45.4122L810.32 40.2528L805.348 40.0582Z" fill="#420680"/>
<path d="M799.983 34.2659L805.15 33.0977L805.93 28.5224L803.785 23.1683L784.48 22.9736L781.896 31.1021L796.034 38.2571L799.983 34.2659Z" fill="#420680"/>
<path d="M812.27 25.6994L814.317 28.1331L819.534 27.4517L820.07 24.0932L815.146 20.394L807.541 21.8056L807.882 23.7525L812.27 25.6994Z" fill="#420680"/>
<path d="M858.924 310.926L861.361 318.665L864.189 317.01L865.018 306.059L862.19 305.28L858.924 310.926Z" fill="#420680"/>
<path d="M858.098 362.86L862.193 357.166L860.145 355.17L855.66 361.643L858.098 362.86Z" fill="#420680"/>
<path d="M869.503 341.347L868.674 329.178L862.191 330.395L861.752 340.957L867.456 353.126L871.112 360.037L880.472 356.776L879.253 351.081L869.503 341.347Z" fill="#420680"/>
<path d="M871.113 362.471L870.723 367.339L876.816 366.511L880.863 372.985L884.909 370.989L881.253 360.038L871.113 362.471Z" fill="#420680"/>
<path d="M815.44 393.67L792.284 374.639H785.41L798.816 391.236L814.66 407.883L821.144 408.272L821.973 402.626L815.44 393.67Z" fill="#420680"/>
<path d="M866.628 422.096L871.503 420.051V416.79L847.566 414.357L834.16 409.489L827.628 410.706L823.191 410.317L821.973 413.14L858.925 422.096H866.628Z" fill="#420680"/>
<path d="M866.238 423.703H862.191V425.309H866.238V423.703Z" fill="#420680"/>
<path d="M882.081 421.268L884.908 420.052L883.299 418.445L879.253 419.224L873.939 422.485L875.158 424.529L882.081 421.268Z" fill="#420680"/>
<path d="M838.206 382.719L831.284 383.936L828.066 388.024L838.596 401.799L842.691 402.188L847.566 403.843L852.441 402.626L853.221 397.759L858.096 388.803V379.896L860.144 373.811L854.05 369.333L838.206 382.719Z" fill="#420680"/>
<path d="M863.801 390.02L859.316 400.193L861.754 407.883L865.849 408.273L867.458 405.06L872.723 408.711L873.941 405.839L869.505 398.976L874.38 395.325L872.723 392.892L866.629 394.887V392.064L879.645 389.631L878.426 386.808L863.801 390.02Z" fill="#420680"/>
<path d="M934.096 426.525L929.611 427.742L923.907 446.822L914.986 439.521L917.034 430.614L900.751 426.136L890.611 436.26L883.689 435.043L866.626 445.216L861.751 452.906L839.424 462.641L839.034 495.495L836.986 508.053L844.299 513.748L888.564 501.58L894.657 504.403L902.799 519.005L908.064 520.221L908.892 524.699L919.032 534.045L930.83 536.478L943.017 529.567L963.346 479.677L948.282 454.512L934.096 426.525Z" fill="#420680"/>
<path d="M919.861 542.562L919.471 553.903L923.127 557.554L928.392 555.51L931.658 545.775H925.564L919.861 542.562Z" fill="#420680"/>
<path d="M979.972 574.59L979.582 582.718L984.067 583.935L1011.27 557.554L1008 551.859L979.972 574.59Z" fill="#420680"/>
<path d="M1024.68 538.474L1016.97 519.443L1014.1 520.66L1016.97 540.129L1010.88 544.169L1013.32 548.647L1011.27 552.687L1014.54 556.337L1030.38 540.908L1029.55 538.085L1024.68 538.474Z" fill="#420680"/>
<path d="M880.863 397.759L881.692 395.715H877.207V397.321L880.863 397.759Z" fill="#420680"/>
<path d="M889.784 386.808L887.346 384.375L886.566 389.631L889.784 393.282V386.808Z" fill="#420680"/>
<path d="M886.955 401.41H882.08L882.909 403.405H888.174L886.955 401.41Z" fill="#420680"/>
<path d="M893.881 401.8L897.927 404.234L898.317 401.8L894.271 399.366L889.006 399.756L889.786 401.8H893.881Z" fill="#420680"/>
<path d="M909.723 408.273L907.285 409.49L909.284 413.14L909.723 408.273Z" fill="#420680"/>
<path d="M909.724 399.365L908.066 394.109L899.535 393.281L904.02 403.405L910.504 404.233L921.083 409.928L919.474 416.401L928.785 418.445L929.224 420.052L937.755 420.441L941.801 415.574L952.38 424.092L958.474 425.308L960.473 422.485L948.724 411.534L937.755 402.188L920.254 397.321L914.16 401.41L909.724 399.365Z" fill="#420680"/>
<path d="M959.691 407.494L954.377 407.884L955.206 410.317L962.518 411.534L969.002 405.839L967.393 403.406L959.691 407.494Z" fill="#420680"/>
<path d="M962.129 398.977L960.812 399.463L963.738 402.627L965.346 401.41L962.129 398.977Z" fill="#420680"/>
<path d="M973.293 410.415L976.657 411.631L977.242 410.415L974.219 407.981L973.293 410.415Z" fill="#420680"/>
<path d="M982.408 413.773L979.678 411.339L978.752 412.118L981.969 414.551L982.408 413.773Z" fill="#420680"/>
<path d="M989.426 418.787L986.696 416.645L986.209 417.862L987.915 419.079L989.426 418.787Z" fill="#420680"/>
<path d="M996.157 421.853L992.647 419.078L991.867 420.295L995.377 422.583L996.157 421.853Z" fill="#420680"/>
<path d="M992.937 422.437L991.426 421.22L990.5 421.999L991.573 422.875L992.937 422.437Z" fill="#420680"/>
<path d="M994.74 424.433L996.593 425.649L997.178 425.163L995.959 423.8L994.74 424.433Z" fill="#420680"/>
<path d="M1009.37 468.968L1004.2 463.225L1003.62 465.026L1008.64 470.964L1009.37 468.968Z" fill="#420680"/>
<path d="M1015.32 448.282L1012.59 443.561L1011.22 444.339L1014.44 449.207L1015.32 448.282Z" fill="#420680"/>
<path d="M1017.46 452.419L1017.02 451.056L1016.09 451.64L1016.39 452.857L1017.46 452.419Z" fill="#420680"/>
<path d="M1040.62 450.715L1043.49 452.711L1045.64 449.353L1043.98 448.136L1040.62 450.715Z" fill="#420680"/>
<path d="M1045.05 444.388L1045.64 446.919L1050.17 447.211L1051 444.388H1045.05Z" fill="#420680"/>
<path d="M923.323 216.937L925.516 214.796L923.323 212.605L919.91 217.911L921.47 220.393L923.323 216.937Z" fill="#420680"/>
<circle cx="514.143" cy="215.244" r="5" fill="#55D6BE"/>
<circle cx="518.762" cy="229.244" r="5" fill="#55D6BE"/>
<circle cx="533.15" cy="227.244" r="5" fill="#55D6BE"/>
<circle cx="552.158" cy="217.605" r="5" fill="#55D6BE"/>
<circle cx="912.285" cy="256.544" r="5" fill="#55D6BE"/>
<circle cx="656.877" cy="445.423" r="5" fill="#55D6BE"/>
<circle cx="548.225" cy="165.149" r="5" fill="#55D6BE"/>
<circle cx="785.41" cy="328.119" r="5" fill="#55D6BE"/>
<circle cx="803.225" cy="339.608" r="5" fill="#55D6BE"/>
<circle cx="510.098" cy="173.244" r="5" fill="#55D6BE"/>
<circle cx="436.193" cy="151.131" r="5" fill="#55D6BE"/>
<circle cx="558.225" cy="254.173" r="5" fill="#55D6BE"/>
<circle cx="629.875" cy="300.28" r="5" fill="#55D6BE"/>
<circle cx="628.699" cy="319.431" r="5" fill="#55D6BE"/>
<circle cx="592.086" cy="283.58" r="5" fill="#55D6BE"/>
<circle cx="573.225" cy="280.102" r="5" fill="#55D6BE"/>
<circle cx="575.225" cy="260.102" r="5" fill="#55D6BE"/>
<circle cx="552.158" cy="270.102" r="5" fill="#55D6BE"/>
<circle cx="544.908" cy="258.58" r="5" fill="#55D6BE"/>
<circle cx="542.158" cy="243.244" r="5" fill="#55D6BE"/>
<circle cx="259.715" cy="439.388" r="5" fill="#55D6BE"/>
<circle cx="873.939" cy="349.608" r="5" fill="#55D6BE"/>
<circle cx="800.133" cy="362.86" r="5" fill="#55D6BE"/>
<circle cx="809.742" cy="378.776" r="5" fill="#55D6BE"/>
<circle cx="283.312" cy="364.015" r="5" fill="#55D6BE"/>
<circle cx="510.098" cy="201.244" r="5" fill="#55D6BE"/>
<circle cx="271" cy="497.748" r="5" fill="#55D6BE"/>
<circle cx="240.533" cy="408.71" r="5" fill="#55D6BE"/>
<circle cx="127.143" cy="273.58" r="5" fill="#55D6BE"/>
<circle cx="238.242" cy="217.244" r="5" fill="#55D6BE"/>
<circle cx="490.873" cy="238.244" r="5" fill="#55D6BE"/>
<circle cx="476.873" cy="264.576" r="5" fill="#55D6BE"/>
<circle cx="461.492" cy="263.58" r="5" fill="#55D6BE"/>
<circle cx="528.762" cy="254.576" r="5" fill="#55D6BE"/>
<circle cx="533.15" cy="275.102" r="5" fill="#55D6BE"/>
<circle cx="206.574" cy="330.26" r="5" fill="#55D6BE"/>
<circle cx="263.562" cy="330.26" r="5" fill="#55D6BE"/>
<circle cx="558.225" cy="238.244" r="5" fill="#55D6BE"/>
<circle cx="528.762" cy="180.711" r="5" fill="#55D6BE"/>
<circle cx="511.336" cy="238.244" r="5" fill="#55D6BE"/>
<circle cx="942.516" cy="514.443" r="5" fill="#55D6BE"/>
<g filter="url(#filter0_d_4015_2092)" class="marker" id="brazil_office" data-office-index="2">
<circle cx="324.934" cy="407.47" r="25" fill="#A853D0"/>
<!-- Plus icon -->
<rect class="icon-plus icon-plus-v" x="322.934" y="398.47" width="4" height="18" fill="white"/>
<rect class="icon-plus icon-plus-h" x="315.934" y="405.47" width="18" height="4" fill="white"/>
</g>
<g filter="url(#filter1_d_4015_2092)" class="marker" id="southafrica_office" data-office-index="1">
<circle cx="568.225" cy="448.703" r="25" fill="#A853D0"/>
<!-- Plus icon -->
<rect class="icon-plus icon-plus-v" x="566.225" y="439.703" width="4" height="18" fill="white"/>
<rect class="icon-plus icon-plus-h" x="559.225" y="446.703" width="18" height="4" fill="white"/>
</g>

<g filter="url(#filter2_d_4015_2092)" class="marker active" id="uk-office" data-office-index="0">
<circle cx="476.873" cy="208.244" r="25" fill="#A853D0"/>
<!-- Plus icon -->
<rect class="icon-plus icon-plus-v" x="474.873" y="199.244" width="4" height="18" fill="white"/>
<rect class="icon-plus icon-plus-h" x="467.873" y="206.244" width="18" height="4" fill="white"/>
</g>
<defs>
<filter id="filter0_d_4015_2092" x="289.934" y="372.47" width="70" height="70" filterUnits="userSpaceOnUse" color-interpolation-filters="sRGB">
<feFlood flood-opacity="0" result="BackgroundImageFix"/>
<feColorMatrix in="SourceAlpha" type="matrix" values="0 0 0 0 0 0 0 0 0 0 0 0 0 0 0 0 0 0 127 0" result="hardAlpha"/>
<feOffset/>
<feGaussianBlur stdDeviation="5"/>
<feComposite in2="hardAlpha" operator="out"/>
<feColorMatrix type="matrix" values="0 0 0 0 0 0 0 0 0 0 0 0 0 0 0 0 0 0 0.25 0"/>
<feBlend mode="normal" in2="BackgroundImageFix" result="effect1_dropShadow_4015_2092"/>
<feBlend mode="normal" in="SourceGraphic" in2="effect1_dropShadow_4015_2092" result="shape"/>
</filter>
<filter id="filter1_d_4015_2092" x="533.225" y="413.703" width="70" height="70" filterUnits="userSpaceOnUse" color-interpolation-filters="sRGB">
<feFlood flood-opacity="0" result="BackgroundImageFix"/>
<feColorMatrix in="SourceAlpha" type="matrix" values="0 0 0 0 0 0 0 0 0 0 0 0 0 0 0 0 0 0 127 0" result="hardAlpha"/>
<feOffset/>
<feGaussianBlur stdDeviation="5"/>
<feComposite in2="hardAlpha" operator="out"/>
<feColorMatrix type="matrix" values="0 0 0 0 0 0 0 0 0 0 0 0 0 0 0 0 0 0 0.25 0"/>
<feBlend mode="normal" in2="BackgroundImageFix" result="effect1_dropShadow_4015_2092"/>
<feBlend mode="normal" in="SourceGraphic" in2="effect1_dropShadow_4015_2092" result="shape"/>
</filter>
<filter id="filter2_d_4015_2092" x="441.873" y="173.244" width="70" height="70" filterUnits="userSpaceOnUse" color-interpolation-filters="sRGB">
<feFlood flood-opacity="0" result="BackgroundImageFix"/>
<feColorMatrix in="SourceAlpha" type="matrix" values="0 0 0 0 0 0 0 0 0 0 0 0 0 0 0 0 0 0 127 0" result="hardAlpha"/>
<feOffset/>
<feGaussianBlur stdDeviation="5"/>
<feComposite in2="hardAlpha" operator="out"/>
<feColorMatrix type="matrix" values="0 0 0 0 0 0 0 0 0 0 0 0 0 0 0 0 0 0 0.25 0"/>
<feBlend mode="normal" in2="BackgroundImageFix" result="effect1_dropShadow_4015_2092"/>
<feBlend mode="normal" in="SourceGraphic" in2="effect1_dropShadow_4015_2092" result="shape"/>
</filter>
</defs>
</svg>
